<svg xmlns="http://www.w3.org/2000/svg" xmlns:xlink="http://www.w3.org/1999/xlink" width="1500" zoomAndPan="magnify" viewBox="0 0 1125 374.999991" height="500" preserveAspectRatio="xMidYMid meet" version="1.0"><defs><g/><clipPath id="05e3bd8d3d"><path d="M 916 187 L 1115 187 L 1115 316 L 916 316 Z M 916 187 " clip-rule="nonzero"/></clipPath><clipPath id="372602f866"><path d="M 911.777344 204.953125 L 1115.027344 187.492188 L 1125.105469 304.808594 L 921.855469 322.269531 Z M 911.777344 204.953125 " clip-rule="nonzero"/></clipPath><clipPath id="cf71652a99"><path d="M 911.777344 204.953125 L 1115.027344 187.492188 L 1125.105469 304.808594 L 921.855469 322.269531 Z M 911.777344 204.953125 " clip-rule="nonzero"/></clipPath><clipPath id="e564b883af"><path d="M 992 279 L 1017 279 L 1017 317 L 992 317 Z M 992 279 " clip-rule="nonzero"/></clipPath><clipPath id="92e8836e13"><path d="M 911.777344 204.953125 L 1115.027344 187.492188 L 1125.105469 304.808594 L 921.855469 322.269531 Z M 911.777344 204.953125 " clip-rule="nonzero"/></clipPath><clipPath id="9b8231c468"><path d="M 911.777344 204.953125 L 1115.027344 187.492188 L 1125.105469 304.808594 L 921.855469 322.269531 Z M 911.777344 204.953125 " clip-rule="nonzero"/></clipPath><clipPath id="7a0e9b0347"><path d="M 624 320 L 987 320 L 987 363 L 624 363 Z M 624 320 " clip-rule="nonzero"/></clipPath><clipPath id="b5361db88e"><path d="M 659.914062 227.867188 L 987.242188 321.664062 L 951.292969 447.113281 L 623.96875 353.320312 Z M 659.914062 227.867188 " clip-rule="nonzero"/></clipPath><clipPath id="26b09f0264"><path d="M 659.914062 227.867188 L 987.242188 321.664062 L 951.292969 447.113281 L 623.96875 353.320312 Z M 659.914062 227.867188 " clip-rule="nonzero"/></clipPath></defs><g fill="#05abc4" fill-opacity="0.4"><g transform="translate(4.961785, 233.824497)"><g><path d="M 165.4375 0 L 134.671875 -58.390625 L 165.4375 -58.390625 L 165.4375 -209.390625 L 8.15625 -209.390625 L 8.15625 0 L 60.59375 0 L 60.59375 -58.390625 L 83.1875 -58.390625 L 113.015625 0 Z M 113.015625 -106.109375 L 60.59375 -106.109375 L 60.59375 -161.359375 L 113.015625 -161.359375 Z M 113.015625 -106.109375 "/></g></g></g><g fill="#05abc4" fill-opacity="0.4"><g transform="translate(216.229294, 233.824497)"><g><path d="M 113.015625 -82.25 L 113.015625 -128.390625 L 8.15625 -128.390625 L 8.15625 -82.25 Z M 113.015625 -82.25 "/></g></g></g><g fill="#05abc4" fill-opacity="0.4"><g transform="translate(375.072408, 233.824497)"><g><path d="M 165.4375 0 L 165.4375 -128.390625 L 60.59375 -128.390625 L 60.59375 -161.359375 L 165.4375 -161.359375 L 165.4375 -209.390625 L 8.15625 -209.390625 L 8.15625 -82.25 L 113.015625 -82.25 L 113.015625 -47.71875 L 8.15625 -47.71875 L 8.15625 0 Z M 165.4375 0 "/></g></g></g><g fill="#05abc4" fill-opacity="0.4"><g transform="translate(586.025998, 233.824497)"><g><path d="M 161.984375 0 L 161.984375 -209.390625 L 4.703125 -209.390625 L 4.703125 -161.359375 L 15.0625 -161.359375 L 15.0625 0 L 57.140625 0 L 57.140625 -161.359375 L 109.5625 -161.359375 L 109.5625 0 Z M 161.984375 0 "/></g></g></g><g fill="#05abc4" fill-opacity="0.4"><g transform="translate(793.840451, 233.824497)"><g><path d="M 165.4375 0 L 165.4375 -128.390625 L 60.59375 -128.390625 L 60.59375 -161.359375 L 165.4375 -161.359375 L 165.4375 -209.390625 L 8.15625 -209.390625 L 8.15625 -82.25 L 113.015625 -82.25 L 113.015625 -47.71875 L 8.15625 -47.71875 L 8.15625 0 Z M 165.4375 0 "/></g></g></g><g fill="#05abc4" fill-opacity="1"><g transform="translate(18.835231, 219.951051)"><g><path d="M 165.4375 0 L 134.671875 -58.390625 L 165.4375 -58.390625 L 165.4375 -209.390625 L 8.15625 -209.390625 L 8.15625 0 L 60.59375 0 L 60.59375 -58.390625 L 83.1875 -58.390625 L 113.015625 0 Z M 113.015625 -106.109375 L 60.59375 -106.109375 L 60.59375 -161.359375 L 113.015625 -161.359375 Z M 113.015625 -106.109375 "/></g></g></g><g fill="#05abc4" fill-opacity="1"><g transform="translate(230.102741, 219.951051)"><g><path d="M 113.015625 -82.25 L 113.015625 -128.390625 L 8.15625 -128.390625 L 8.15625 -82.25 Z M 113.015625 -82.25 "/></g></g></g><g fill="#05abc4" fill-opacity="1"><g transform="translate(388.945854, 219.951051)"><g><path d="M 165.4375 0 L 165.4375 -128.390625 L 60.59375 -128.390625 L 60.59375 -161.359375 L 165.4375 -161.359375 L 165.4375 -209.390625 L 8.15625 -209.390625 L 8.15625 -82.25 L 113.015625 -82.25 L 113.015625 -47.71875 L 8.15625 -47.71875 L 8.15625 0 Z M 165.4375 0 "/></g></g></g><g fill="#05abc4" fill-opacity="1"><g transform="translate(599.899444, 219.951051)"><g><path d="M 161.984375 0 L 161.984375 -209.390625 L 4.703125 -209.390625 L 4.703125 -161.359375 L 15.0625 -161.359375 L 15.0625 0 L 57.140625 0 L 57.140625 -161.359375 L 109.5625 -161.359375 L 109.5625 0 Z M 161.984375 0 "/></g></g></g><g fill="#05abc4" fill-opacity="1"><g transform="translate(807.713898, 219.951051)"><g><path d="M 165.4375 0 L 165.4375 -128.390625 L 60.59375 -128.390625 L 60.59375 -161.359375 L 165.4375 -161.359375 L 165.4375 -209.390625 L 8.15625 -209.390625 L 8.15625 -82.25 L 113.015625 -82.25 L 113.015625 -47.71875 L 8.15625 -47.71875 L 8.15625 0 Z M 165.4375 0 "/></g></g></g><g clip-path="url(#05e3bd8d3d)"><g clip-path="url(#372602f866)"><g clip-path="url(#cf71652a99)"><path fill="#05abc4" d="M 916.613281 261.203125 L 1114.898438 187.53125 L 1061.660156 310.195312 L 999.9375 276.132812 L 1114.617188 187.753906 L 993.066406 275.398438 L 988.535156 315.480469 L 969.300781 273.285156 L 1114.59375 187.746094 L 966.242188 270.558594 Z M 916.613281 261.203125 " fill-opacity="1" fill-rule="evenodd"/></g></g></g><g clip-path="url(#e564b883af)"><g clip-path="url(#92e8836e13)"><g clip-path="url(#9b8231c468)"><path fill="#05abc4" d="M 992.558594 316.023438 L 1016.628906 290 L 998.777344 279.085938 Z M 992.558594 316.023438 " fill-opacity="1" fill-rule="evenodd"/></g></g></g><g clip-path="url(#7a0e9b0347)"><g clip-path="url(#b5361db88e)"><g clip-path="url(#26b09f0264)"><path fill="#05abc4" d="M 986.738281 322.609375 C 983.8125 326.652344 980.480469 330.371094 976.859375 333.863281 L 974.738281 331.628906 C 978.238281 328.3125 981.398438 324.6875 984.207031 320.820312 Z M 956.5 344.878906 L 957.992188 347.574219 C 962.351562 345.210938 966.542969 342.449219 970.460938 339.394531 L 968.546875 336.933594 C 964.710938 339.941406 960.707031 342.546875 956.5 344.878906 Z M 935.460938 353.574219 L 936.382812 356.53125 C 941.105469 355.121094 945.769531 353.414062 950.316406 351.390625 L 949.074219 348.558594 C 944.679688 350.554688 940.117188 352.148438 935.460938 353.574219 Z M 913.1875 358.167969 L 913.578125 361.253906 C 918.488281 360.675781 923.40625 359.820312 928.183594 358.710938 L 927.492188 355.683594 C 922.734375 356.726562 917.964844 357.554688 913.1875 358.167969 Z M 890.359375 359.273438 L 890.320312 362.375 C 895.238281 362.511719 900.230469 362.382812 905.148438 362.023438 L 904.972656 358.929688 C 900.054688 359.289062 895.210938 359.386719 890.359375 359.273438 Z M 867.589844 357.207031 L 867.136719 360.261719 C 872.019531 361.023438 876.953125 361.589844 881.878906 361.9375 L 882.132812 358.824219 C 877.1875 358.542969 872.382812 358.015625 867.589844 357.207031 Z M 845.082031 352.738281 L 844.371094 355.722656 C 849.136719 356.875 853.941406 357.898438 858.78125 358.789062 L 859.363281 355.769531 C 854.589844 354.898438 849.785156 353.875 845.082031 352.738281 Z M 829.859375 348.800781 L 822.792969 346.777344 L 821.949219 349.722656 L 829.015625 351.746094 C 831.371094 352.421875 833.742188 353.03125 836.117188 353.640625 L 836.894531 350.675781 C 834.585938 350.085938 832.214844 349.476562 829.859375 348.800781 Z M 799.863281 343.039062 L 813.921875 347.351562 L 814.828125 344.425781 L 800.773438 340.113281 Z M 777.761719 336.421875 C 782.472656 337.773438 787.164062 339.1875 791.789062 340.582031 L 792.699219 337.660156 C 788.007812 336.242188 783.316406 334.828125 778.605469 333.476562 Z M 756.210938 327.628906 L 755.496094 330.609375 C 760.285156 331.699219 764.964844 332.898438 769.695312 334.183594 L 770.472656 331.21875 C 765.742188 329.933594 760.996094 328.714844 756.210938 327.628906 Z M 733.367188 323.347656 L 732.980469 326.421875 C 737.8125 327.097656 742.609375 327.90625 747.367188 328.84375 L 747.949219 325.828125 C 743.144531 324.804688 738.285156 323.976562 733.367188 323.347656 Z M 710.222656 321.601562 L 710.183594 324.703125 C 715.054688 324.753906 719.867188 325 724.691406 325.460938 L 724.945312 322.351562 C 720.101562 321.953125 715.160156 321.667969 710.222656 321.601562 Z M 686.972656 322.9375 L 687.363281 326.023438 C 692.140625 325.410156 697.011719 324.964844 701.871094 324.800781 L 701.761719 321.722656 C 696.816406 321.9375 691.898438 322.296875 686.972656 322.9375 Z M 664.140625 328.003906 L 665.0625 330.960938 C 669.65625 329.515625 674.386719 328.320312 679.105469 327.410156 L 678.503906 324.332031 C 673.695312 325.292969 668.898438 326.464844 664.140625 328.003906 Z M 642.808594 337.46875 L 644.386719 340.113281 C 648.550781 337.695312 652.851562 335.53125 657.339844 333.703125 L 656.183594 330.824219 C 651.589844 332.761719 647.140625 334.957031 642.808594 337.46875 Z M 624.363281 351.933594 L 626.570312 354.125 C 629.957031 350.703125 633.613281 347.574219 637.476562 344.71875 L 635.644531 342.210938 C 631.632812 345.097656 627.855469 348.402344 624.363281 351.933594 Z M 624.363281 351.933594 " fill-opacity="1" fill-rule="nonzero"/></g></g></g></svg>