<svg xmlns="http://www.w3.org/2000/svg" xmlns:xlink="http://www.w3.org/1999/xlink" width="1396" zoomAndPan="magnify" viewBox="0 0 1047 374.999991" height="500" preserveAspectRatio="xMidYMid meet" version="1.0"><defs><clipPath id="3955ec7226"><path d="M 624 0 L 1047 0 L 1047 273 L 624 273 Z M 624 0 " clip-rule="nonzero"/></clipPath><clipPath id="4dc531706b"><path d="M 613.941406 37.226562 L 1047.476562 -0.0195312 L 1068.976562 250.21875 L 635.441406 287.464844 Z M 613.941406 37.226562 " clip-rule="nonzero"/></clipPath><clipPath id="4c3186406a"><path d="M 613.941406 37.226562 L 1047.476562 -0.0195312 L 1068.976562 250.21875 L 635.441406 287.464844 Z M 613.941406 37.226562 " clip-rule="nonzero"/></clipPath><clipPath id="cc0fb0b44a"><path d="M 786 195 L 838 195 L 838 275 L 786 275 Z M 786 195 " clip-rule="nonzero"/></clipPath><clipPath id="0b73061149"><path d="M 613.941406 37.226562 L 1047.476562 -0.0195312 L 1068.976562 250.21875 L 635.441406 287.464844 Z M 613.941406 37.226562 " clip-rule="nonzero"/></clipPath><clipPath id="d461672495"><path d="M 613.941406 37.226562 L 1047.476562 -0.0195312 L 1068.976562 250.21875 L 635.441406 287.464844 Z M 613.941406 37.226562 " clip-rule="nonzero"/></clipPath><clipPath id="7c53d74d5f"><path d="M 0 284 L 774 284 L 774 374 L 0 374 Z M 0 284 " clip-rule="nonzero"/></clipPath><clipPath id="a2d39c1459"><path d="M 76.726562 86.105469 L 774.914062 286.167969 L 698.234375 553.757812 L 0.046875 353.691406 Z M 76.726562 86.105469 " clip-rule="nonzero"/></clipPath><clipPath id="10bd178952"><path d="M 76.726562 86.105469 L 774.914062 286.167969 L 698.234375 553.757812 L 0.046875 353.691406 Z M 76.726562 86.105469 " clip-rule="nonzero"/></clipPath></defs><g clip-path="url(#3955ec7226)"><g clip-path="url(#4dc531706b)"><g clip-path="url(#4c3186406a)"><path fill="#05abc4" d="M 624.257812 157.207031 L 1047.207031 0.0664062 L 933.644531 261.707031 L 801.992188 189.058594 L 1046.601562 0.539062 L 787.332031 187.484375 L 777.671875 272.980469 L 736.640625 182.980469 L 1046.558594 0.523438 L 730.121094 177.164062 Z M 624.257812 157.207031 " fill-opacity="1" fill-rule="evenodd"/></g></g></g><g clip-path="url(#cc0fb0b44a)"><g clip-path="url(#0b73061149)"><g clip-path="url(#d461672495)"><path fill="#05abc4" d="M 786.25 274.144531 L 837.589844 218.628906 L 799.519531 195.347656 Z M 786.25 274.144531 " fill-opacity="1" fill-rule="evenodd"/></g></g></g><g clip-path="url(#7c53d74d5f)"><g clip-path="url(#a2d39c1459)"><g clip-path="url(#10bd178952)"><path fill="#05abc4" d="M 773.839844 288.183594 C 767.59375 296.8125 760.488281 304.746094 752.765625 312.195312 L 748.242188 307.425781 C 755.707031 300.355469 762.453125 292.621094 768.441406 284.371094 Z M 709.339844 335.691406 L 712.523438 341.4375 C 721.820312 336.398438 730.757812 330.503906 739.117188 323.988281 L 735.035156 318.742188 C 726.855469 325.15625 718.316406 330.714844 709.339844 335.691406 Z M 664.460938 354.238281 L 666.429688 360.542969 C 676.503906 357.539062 686.453125 353.898438 696.148438 349.578125 L 693.5 343.535156 C 684.125 347.792969 674.394531 351.195312 664.460938 354.238281 Z M 616.957031 364.035156 L 617.789062 370.613281 C 628.257812 369.386719 638.75 367.558594 648.941406 365.195312 L 647.46875 358.734375 C 637.316406 360.957031 627.148438 362.726562 616.957031 364.035156 Z M 568.261719 366.390625 L 568.179688 373.007812 C 578.667969 373.296875 589.3125 373.023438 599.804688 372.253906 L 599.429688 365.65625 C 588.941406 366.425781 578.613281 366.636719 568.261719 366.390625 Z M 519.695312 361.984375 L 518.730469 368.503906 C 529.140625 370.128906 539.667969 371.332031 550.171875 372.078125 L 550.71875 365.4375 C 540.167969 364.832031 529.921875 363.707031 519.695312 361.984375 Z M 471.6875 352.457031 L 470.167969 358.816406 C 480.332031 361.277344 490.582031 363.457031 500.90625 365.359375 L 502.148438 358.921875 C 491.960938 357.058594 481.714844 354.875 471.6875 352.457031 Z M 439.210938 344.058594 L 424.140625 339.738281 L 422.339844 346.019531 L 437.414062 350.335938 C 442.4375 351.777344 447.5 353.074219 452.5625 354.375 L 454.222656 348.054688 C 449.300781 346.796875 444.234375 345.496094 439.210938 344.058594 Z M 375.234375 331.765625 L 405.21875 340.960938 L 407.15625 334.71875 L 377.175781 325.523438 Z M 328.089844 317.652344 C 338.136719 320.53125 348.144531 323.546875 358.011719 326.527344 L 359.949219 320.289062 C 349.941406 317.269531 339.933594 314.25 329.886719 311.371094 Z M 282.121094 298.890625 L 280.601562 305.25 C 290.808594 307.574219 300.796875 310.132812 310.882812 312.871094 L 312.542969 306.550781 C 302.457031 303.8125 292.328125 301.214844 282.121094 298.890625 Z M 233.398438 289.761719 L 232.574219 296.320312 C 242.882812 297.765625 253.109375 299.488281 263.257812 301.488281 L 264.5 295.050781 C 254.25 292.867188 243.882812 291.105469 233.398438 289.761719 Z M 184.03125 286.035156 L 183.945312 292.65625 C 194.332031 292.761719 204.601562 293.289062 214.890625 294.273438 L 215.433594 287.636719 C 205.105469 286.789062 194.558594 286.183594 184.03125 286.035156 Z M 134.4375 288.886719 L 135.269531 295.46875 C 145.460938 294.160156 155.851562 293.210938 166.21875 292.859375 L 165.984375 286.300781 C 155.4375 286.75 144.945312 287.519531 134.4375 288.886719 Z M 85.738281 299.699219 L 87.707031 306 C 97.5 302.917969 107.589844 300.371094 117.660156 298.425781 L 116.371094 291.867188 C 106.121094 293.910156 95.890625 296.414062 85.738281 299.699219 Z M 40.238281 319.882812 L 43.605469 325.527344 C 52.480469 320.371094 61.65625 315.75 71.230469 311.851562 L 68.765625 305.707031 C 58.96875 309.847656 49.476562 314.523438 40.238281 319.882812 Z M 0.894531 350.738281 L 5.597656 355.40625 C 12.820312 348.113281 20.621094 341.441406 28.863281 335.347656 L 24.957031 330 C 16.398438 336.152344 8.339844 343.207031 0.894531 350.738281 Z M 0.894531 350.738281 " fill-opacity="1" fill-rule="nonzero"/></g></g></g></svg>